<mxfile host="65bd71144e">
    <diagram id="-o4WFXWCy7hky7KGbpRS" name="Page-1">
        <mxGraphModel dx="2488" dy="582" grid="0" gridSize="10" guides="1" tooltips="1" connect="1" arrows="0" fold="1" page="0" pageScale="1" pageWidth="827" pageHeight="1169" background="#ffffff" math="0" shadow="0">
            <root>
                <mxCell id="0"/>
                <mxCell id="1" parent="0"/>
                <mxCell id="44" value="" style="shape=stencil(lZbdUttADIWfxrdnpNX+XlN4D2YIjYc0YUKg5e3R1mOIlkSd3vnv88pHR8c7yc3L9v55MwV6OR0PT5vf88NpO8mPKYR5v90c55MeTXI7yc3j4bj5eTy87h+W8+f7/mQ/+nV462/4s3CNUEKnAr0vV2JCan+v3C3Abt6fAxmlGCAJWnWAhsoGyIKaXSCJAUoEeyUltGyAqis4QG2IFmiMFh1AVbIltYLE14FCyFYlJgLRdSITJNolGtiRKRGq7ZzqQE4jooBtI2oFO4BUkAVK84EMsrrmBhIHKGMjUkV1VIphXCGqW5zO6W1pFggITklaQK4G0CKzs0KuaMkCGSE53lARrZlU6OB8dG+TXUFbGfyBoGFG6V8zykPjCLFcB87c/OkNWoPh8hI6MBbQofJa3UdysGtbX3FZJh36YUg1GJySeqzYkr6i53KrBeXbjFYnBjQa6wBofHozmhCHoVZZHTN1QP4HkDima09Dx0whrm7+BBKyE0yc1rQ+i43ofHRBtW4tDHHaEMYwzrym7cXn1ar2AxKvKXLteWuLSODg1ZNsYgRfUc0TWz831xQcR4GYkZweBxmBBHEmRz0x/Bm0AY6garpBofHfpgdfO47HebdbNizn98cdil5adjdy+wE=);lineShape=1;sketch=1;strokeColor=#000000;" vertex="1" parent="1">
                    <mxGeometry x="964.8664298068084" y="677.6237854899409" width="3.868650369597092" height="3.880518094776317" as="geometry"/>
                </mxCell>
                <mxCell id="78" style="edgeStyle=none;html=1;exitX=1;exitY=0.25;exitDx=0;exitDy=0;strokeColor=#0d0d0d;strokeWidth=2;fontFamily=Times New Roman;fontSize=26;fontColor=#080707;startArrow=none;startFill=0;endArrow=classic;endFill=1;" edge="1" parent="1" source="2">
                    <mxGeometry relative="1" as="geometry">
                        <mxPoint x="316" y="498.8421052631579" as="targetPoint"/>
                    </mxGeometry>
                </mxCell>
                <mxCell id="138" style="edgeStyle=orthogonalEdgeStyle;html=1;exitX=0.75;exitY=1;exitDx=0;exitDy=0;strokeColor=#0d0d0d;strokeWidth=2;fontFamily=Times New Roman;fontSize=26;fontColor=#080707;startArrow=none;startFill=0;endArrow=classic;endFill=1;entryX=0;entryY=0.5;entryDx=0;entryDy=0;" edge="1" parent="1" source="2" target="87">
                    <mxGeometry relative="1" as="geometry">
                        <mxPoint x="-69.33333333333303" y="699" as="targetPoint"/>
                    </mxGeometry>
                </mxCell>
                <mxCell id="140" style="edgeStyle=orthogonalEdgeStyle;html=1;exitX=0.5;exitY=1;exitDx=0;exitDy=0;entryX=0;entryY=0.5;entryDx=0;entryDy=0;strokeColor=#0d0d0d;strokeWidth=2;fontFamily=Times New Roman;fontSize=26;fontColor=#080707;startArrow=none;startFill=0;endArrow=classic;endFill=1;" edge="1" parent="1" source="2" target="88">
                    <mxGeometry relative="1" as="geometry"/>
                </mxCell>
                <mxCell id="142" style="edgeStyle=orthogonalEdgeStyle;html=1;exitX=0.25;exitY=1;exitDx=0;exitDy=0;entryX=0;entryY=0.5;entryDx=0;entryDy=0;strokeColor=#0d0d0d;strokeWidth=2;fontFamily=Times New Roman;fontSize=26;fontColor=#080707;startArrow=none;startFill=0;endArrow=classic;endFill=1;" edge="1" parent="1" source="2" target="89">
                    <mxGeometry relative="1" as="geometry"/>
                </mxCell>
                <mxCell id="176" style="edgeStyle=orthogonalEdgeStyle;html=1;exitX=0;exitY=1;exitDx=0;exitDy=0;entryX=0;entryY=0.25;entryDx=0;entryDy=0;strokeColor=#0d0d0d;strokeWidth=2;fontFamily=Times New Roman;fontSize=31;fontColor=#080707;startArrow=none;startFill=0;endArrow=classic;endFill=1;" edge="1" parent="1" source="2" target="164">
                    <mxGeometry relative="1" as="geometry">
                        <Array as="points">
                            <mxPoint x="-254" y="559"/>
                            <mxPoint x="-254" y="1341"/>
                        </Array>
                    </mxGeometry>
                </mxCell>
                <mxCell id="2" value="" style="whiteSpace=wrap;html=1;fillColor=none;strokeColor=#000000;strokeWidth=1;" parent="1" vertex="1">
                    <mxGeometry x="-274" y="469" width="260" height="90" as="geometry"/>
                </mxCell>
                <mxCell id="66" value="" style="group" vertex="1" connectable="0" parent="1">
                    <mxGeometry x="305" y="459" width="180" height="142" as="geometry"/>
                </mxCell>
                <mxCell id="60" value="" style="group" vertex="1" connectable="0" parent="66">
                    <mxGeometry width="180" height="130" as="geometry"/>
                </mxCell>
                <mxCell id="64" style="edgeStyle=none;html=1;exitX=0.057;exitY=0.199;exitDx=0;exitDy=0;entryX=0.962;entryY=0.29;entryDx=0;entryDy=0;strokeColor=#150404;fontFamily=Helvetica;fontSize=12;fontColor=default;endArrow=none;endFill=0;exitPerimeter=0;entryPerimeter=0;" edge="1" parent="60" target="4">
                    <mxGeometry relative="1" as="geometry">
                        <mxPoint x="7.786666666666861" y="38.86999999999998" as="sourcePoint"/>
                        <mxPoint x="135.3707020923945" y="39.2393206366125" as="targetPoint"/>
                    </mxGeometry>
                </mxCell>
                <mxCell id="71" value="&lt;font style=&quot;font-size: 26px;&quot;&gt;1.0&lt;/font&gt;" style="text;strokeColor=none;align=center;fillColor=none;html=1;verticalAlign=middle;whiteSpace=wrap;rounded=0;pointerEvents=0;fontFamily=Times New Roman;fontSize=40;fontColor=#080707;" vertex="1" parent="60">
                    <mxGeometry x="48.5" y="6" width="60" height="30" as="geometry"/>
                </mxCell>
                <mxCell id="72" value="&lt;font style=&quot;font-size: 40px;&quot; face=&quot;Times New Roman&quot; color=&quot;#080707&quot;&gt;Login&lt;/font&gt;" style="text;strokeColor=none;align=center;fillColor=none;html=1;verticalAlign=middle;whiteSpace=wrap;rounded=0;pointerEvents=0;fontFamily=Helvetica;fontSize=12;fontColor=default;" vertex="1" parent="60">
                    <mxGeometry x="-9" y="49" width="180" height="52.5" as="geometry"/>
                </mxCell>
                <mxCell id="4" value="" style="ellipse;whiteSpace=wrap;html=1;strokeColor=#000000;fillColor=none;" parent="60" vertex="1">
                    <mxGeometry x="4" width="160" height="130" as="geometry"/>
                </mxCell>
                <mxCell id="68" value="&lt;font style=&quot;font-size: 40px;&quot; face=&quot;Times New Roman&quot; color=&quot;#080707&quot;&gt;Admin&lt;/font&gt;" style="text;strokeColor=none;align=center;fillColor=none;html=1;verticalAlign=middle;whiteSpace=wrap;rounded=0;pointerEvents=0;fontFamily=Helvetica;fontSize=12;fontColor=default;" vertex="1" parent="1">
                    <mxGeometry x="-246" y="492.75" width="180" height="52.5" as="geometry"/>
                </mxCell>
                <mxCell id="85" style="edgeStyle=none;html=1;exitX=0;exitY=0.75;exitDx=0;exitDy=0;strokeColor=#0d0d0d;strokeWidth=2;fontFamily=Times New Roman;fontSize=26;fontColor=#080707;startArrow=none;startFill=0;endArrow=classic;endFill=1;" edge="1" parent="1">
                    <mxGeometry relative="1" as="geometry">
                        <mxPoint x="297" y="548.375" as="sourcePoint"/>
                        <mxPoint x="-14" y="548" as="targetPoint"/>
                        <Array as="points">
                            <mxPoint x="313" y="548"/>
                        </Array>
                    </mxGeometry>
                </mxCell>
                <mxCell id="91" style="edgeStyle=none;html=1;exitX=0.5;exitY=1;exitDx=0;exitDy=0;strokeColor=#0d0d0d;strokeWidth=2;fontFamily=Times New Roman;fontSize=26;fontColor=#080707;startArrow=none;startFill=0;endArrow=classic;endFill=1;" edge="1" parent="1" source="87" target="88">
                    <mxGeometry relative="1" as="geometry"/>
                </mxCell>
                <mxCell id="139" style="edgeStyle=orthogonalEdgeStyle;html=1;exitX=0;exitY=1;exitDx=0;exitDy=0;entryX=0.632;entryY=0.992;entryDx=0;entryDy=0;entryPerimeter=0;strokeColor=#0d0d0d;strokeWidth=2;fontFamily=Times New Roman;fontSize=26;fontColor=#080707;startArrow=none;startFill=0;endArrow=classic;endFill=1;" edge="1" parent="1" source="87" target="2">
                    <mxGeometry relative="1" as="geometry"/>
                </mxCell>
                <mxCell id="87" value="" style="ellipse;whiteSpace=wrap;html=1;strokeColor=#000000;fillColor=none;" vertex="1" parent="1">
                    <mxGeometry x="305" y="669" width="160" height="130" as="geometry"/>
                </mxCell>
                <mxCell id="92" style="edgeStyle=none;html=1;exitX=0.5;exitY=1;exitDx=0;exitDy=0;strokeColor=#0d0d0d;strokeWidth=2;fontFamily=Times New Roman;fontSize=26;fontColor=#080707;startArrow=none;startFill=0;endArrow=classic;endFill=1;" edge="1" parent="1" source="88" target="89">
                    <mxGeometry relative="1" as="geometry"/>
                </mxCell>
                <mxCell id="141" style="edgeStyle=orthogonalEdgeStyle;html=1;exitX=0;exitY=1;exitDx=0;exitDy=0;entryX=0.365;entryY=1.025;entryDx=0;entryDy=0;entryPerimeter=0;strokeColor=#0d0d0d;strokeWidth=2;fontFamily=Times New Roman;fontSize=26;fontColor=#080707;startArrow=none;startFill=0;endArrow=classic;endFill=1;" edge="1" parent="1" source="88" target="2">
                    <mxGeometry relative="1" as="geometry"/>
                </mxCell>
                <mxCell id="88" value="" style="ellipse;whiteSpace=wrap;html=1;strokeColor=#000000;fillColor=none;" vertex="1" parent="1">
                    <mxGeometry x="305" y="889" width="160" height="130" as="geometry"/>
                </mxCell>
                <mxCell id="143" style="edgeStyle=orthogonalEdgeStyle;html=1;exitX=0;exitY=1;exitDx=0;exitDy=0;entryX=0.123;entryY=1.075;entryDx=0;entryDy=0;entryPerimeter=0;strokeColor=#0d0d0d;strokeWidth=2;fontFamily=Times New Roman;fontSize=26;fontColor=#080707;startArrow=none;startFill=0;endArrow=classic;endFill=1;" edge="1" parent="1" source="89" target="2">
                    <mxGeometry relative="1" as="geometry"/>
                </mxCell>
                <mxCell id="90" style="edgeStyle=none;html=1;exitX=0.5;exitY=1;exitDx=0;exitDy=0;strokeColor=#0d0d0d;strokeWidth=2;fontFamily=Times New Roman;fontSize=26;fontColor=#080707;startArrow=none;startFill=0;endArrow=classic;endFill=1;" edge="1" parent="1" source="4" target="87">
                    <mxGeometry relative="1" as="geometry"/>
                </mxCell>
                <mxCell id="93" style="edgeStyle=none;html=1;exitX=0.057;exitY=0.199;exitDx=0;exitDy=0;entryX=0.962;entryY=0.29;entryDx=0;entryDy=0;strokeColor=#150404;fontFamily=Helvetica;fontSize=12;fontColor=default;endArrow=none;endFill=0;exitPerimeter=0;entryPerimeter=0;" edge="1" parent="1">
                    <mxGeometry relative="1" as="geometry">
                        <mxPoint x="311.93666666666684" y="710.1700000000001" as="sourcePoint"/>
                        <mxPoint x="458.07000000000005" y="709" as="targetPoint"/>
                    </mxGeometry>
                </mxCell>
                <mxCell id="94" style="edgeStyle=none;html=1;exitX=0.057;exitY=0.199;exitDx=0;exitDy=0;entryX=0.962;entryY=0.29;entryDx=0;entryDy=0;strokeColor=#150404;fontFamily=Helvetica;fontSize=12;fontColor=default;endArrow=none;endFill=0;exitPerimeter=0;entryPerimeter=0;" edge="1" parent="1">
                    <mxGeometry relative="1" as="geometry">
                        <mxPoint x="311.93666666666695" y="930.1700000000001" as="sourcePoint"/>
                        <mxPoint x="458.0700000000006" y="929" as="targetPoint"/>
                    </mxGeometry>
                </mxCell>
                <mxCell id="95" style="edgeStyle=none;html=1;exitX=0.057;exitY=0.199;exitDx=0;exitDy=0;entryX=0.962;entryY=0.29;entryDx=0;entryDy=0;strokeColor=#150404;fontFamily=Helvetica;fontSize=12;fontColor=default;endArrow=none;endFill=0;exitPerimeter=0;entryPerimeter=0;" edge="1" parent="1">
                    <mxGeometry relative="1" as="geometry">
                        <mxPoint x="311.93666666666695" y="1110.17" as="sourcePoint"/>
                        <mxPoint x="458.0700000000006" y="1109" as="targetPoint"/>
                    </mxGeometry>
                </mxCell>
                <mxCell id="102" value="&lt;font style=&quot;font-size: 26px;&quot;&gt;2.0&lt;/font&gt;" style="text;strokeColor=none;align=center;fillColor=none;html=1;verticalAlign=middle;whiteSpace=wrap;rounded=0;pointerEvents=0;fontFamily=Times New Roman;fontSize=40;fontColor=#080707;" vertex="1" parent="1">
                    <mxGeometry x="354.5" y="677" width="60" height="30" as="geometry"/>
                </mxCell>
                <mxCell id="104" value="&lt;font style=&quot;font-size: 26px;&quot;&gt;3.0&lt;/font&gt;" style="text;strokeColor=none;align=center;fillColor=none;html=1;verticalAlign=middle;whiteSpace=wrap;rounded=0;pointerEvents=0;fontFamily=Times New Roman;fontSize=40;fontColor=#080707;" vertex="1" parent="1">
                    <mxGeometry x="353.5" y="899" width="60" height="30" as="geometry"/>
                </mxCell>
                <mxCell id="105" value="" style="group;fillColor=none;strokeColor=none;" vertex="1" connectable="0" parent="1">
                    <mxGeometry x="573.87" y="479" width="391" height="90" as="geometry"/>
                </mxCell>
                <mxCell id="58" value="" style="group;strokeWidth=3;strokeColor=default;fillColor=none;" vertex="1" connectable="0" parent="105">
                    <mxGeometry x="151" width="240" height="90" as="geometry"/>
                </mxCell>
                <mxCell id="53" value="" style="edgeStyle=none;orthogonalLoop=1;jettySize=auto;html=1;fontFamily=Helvetica;fontSize=12;fontColor=default;strokeColor=#150404;endArrow=none;endFill=0;" edge="1" parent="58">
                    <mxGeometry width="80" relative="1" as="geometry">
                        <mxPoint as="sourcePoint"/>
                        <mxPoint x="210.00000000000003" as="targetPoint"/>
                        <Array as="points"/>
                    </mxGeometry>
                </mxCell>
                <mxCell id="54" value="" style="edgeStyle=none;orthogonalLoop=1;jettySize=auto;html=1;fontFamily=Helvetica;fontSize=12;fontColor=default;strokeColor=#150404;endArrow=none;endFill=0;" edge="1" parent="58">
                    <mxGeometry width="80" relative="1" as="geometry">
                        <mxPoint y="88.01999999999998" as="sourcePoint"/>
                        <mxPoint x="210.00000000000003" y="88.01999999999998" as="targetPoint"/>
                        <Array as="points"/>
                    </mxGeometry>
                </mxCell>
                <mxCell id="55" value="" style="edgeStyle=none;orthogonalLoop=1;jettySize=auto;html=1;fontFamily=Helvetica;fontSize=12;fontColor=default;strokeColor=#150404;endArrow=none;endFill=0;" edge="1" parent="58">
                    <mxGeometry width="80" relative="1" as="geometry">
                        <mxPoint as="sourcePoint"/>
                        <mxPoint y="90" as="targetPoint"/>
                        <Array as="points"/>
                    </mxGeometry>
                </mxCell>
                <mxCell id="67" value="" style="edgeStyle=none;orthogonalLoop=1;jettySize=auto;html=1;strokeColor=#150404;fontFamily=Helvetica;fontSize=12;fontColor=default;endArrow=none;endFill=0;" edge="1" parent="58">
                    <mxGeometry width="80" relative="1" as="geometry">
                        <mxPoint x="40" as="sourcePoint"/>
                        <mxPoint x="40" y="90" as="targetPoint"/>
                        <Array as="points"/>
                    </mxGeometry>
                </mxCell>
                <mxCell id="73" value="&lt;font style=&quot;font-size: 40px;&quot; face=&quot;Times New Roman&quot; color=&quot;#080707&quot;&gt;tbl-admin&lt;/font&gt;" style="text;strokeColor=none;align=center;fillColor=none;html=1;verticalAlign=middle;whiteSpace=wrap;rounded=0;pointerEvents=0;fontFamily=Helvetica;fontSize=12;fontColor=default;" vertex="1" parent="58">
                    <mxGeometry x="37" y="20" width="180" height="52.5" as="geometry"/>
                </mxCell>
                <mxCell id="79" style="edgeStyle=none;html=1;exitX=1;exitY=0.5;exitDx=0;exitDy=0;strokeColor=#0d0d0d;strokeWidth=2;fontFamily=Times New Roman;fontSize=26;fontColor=#080707;startArrow=none;startFill=0;endArrow=classic;endFill=1;" edge="1" parent="105">
                    <mxGeometry relative="1" as="geometry">
                        <mxPoint x="151" y="21.105263157894797" as="targetPoint"/>
                        <mxPoint y="21" as="sourcePoint"/>
                        <Array as="points">
                            <mxPoint x="-117.87" y="21"/>
                        </Array>
                    </mxGeometry>
                </mxCell>
                <mxCell id="86" style="edgeStyle=none;html=1;exitX=0;exitY=0.75;exitDx=0;exitDy=0;entryX=0.991;entryY=0.684;entryDx=0;entryDy=0;entryPerimeter=0;strokeColor=#0d0d0d;strokeWidth=2;fontFamily=Times New Roman;fontSize=26;fontColor=#080707;startArrow=none;startFill=0;endArrow=classic;endFill=1;" edge="1" parent="105" target="4">
                    <mxGeometry relative="1" as="geometry">
                        <mxPoint x="141.03999999999996" y="69.375" as="sourcePoint"/>
                        <mxPoint x="31.000000000000057" y="68.88000000000011" as="targetPoint"/>
                        <Array as="points">
                            <mxPoint x="157.03999999999996" y="69"/>
                        </Array>
                    </mxGeometry>
                </mxCell>
                <mxCell id="150" value="&lt;font style=&quot;font-size: 40px;&quot; face=&quot;Times New Roman&quot; color=&quot;#080707&quot;&gt;Check Request&lt;/font&gt;" style="text;strokeColor=none;align=center;fillColor=none;html=1;verticalAlign=middle;whiteSpace=wrap;rounded=0;pointerEvents=0;fontFamily=Helvetica;fontSize=12;fontColor=default;" vertex="1" parent="105">
                    <mxGeometry x="-142.87" y="-30" width="310" height="52.5" as="geometry"/>
                </mxCell>
                <mxCell id="106" value="" style="group" vertex="1" connectable="0" parent="1">
                    <mxGeometry x="573.87" y="689" width="391" height="90" as="geometry"/>
                </mxCell>
                <mxCell id="107" value="" style="group;strokeWidth=3;strokeColor=default;fillColor=none;" vertex="1" connectable="0" parent="106">
                    <mxGeometry x="151" width="240" height="90" as="geometry"/>
                </mxCell>
                <mxCell id="108" value="" style="edgeStyle=none;orthogonalLoop=1;jettySize=auto;html=1;fontFamily=Helvetica;fontSize=12;fontColor=default;strokeColor=#150404;endArrow=none;endFill=0;" edge="1" parent="107">
                    <mxGeometry width="80" relative="1" as="geometry">
                        <mxPoint as="sourcePoint"/>
                        <mxPoint x="210.00000000000003" as="targetPoint"/>
                        <Array as="points"/>
                    </mxGeometry>
                </mxCell>
                <mxCell id="109" value="" style="edgeStyle=none;orthogonalLoop=1;jettySize=auto;html=1;fontFamily=Helvetica;fontSize=12;fontColor=default;strokeColor=#150404;endArrow=none;endFill=0;" edge="1" parent="107">
                    <mxGeometry width="80" relative="1" as="geometry">
                        <mxPoint y="88.01999999999998" as="sourcePoint"/>
                        <mxPoint x="210.00000000000003" y="88.01999999999998" as="targetPoint"/>
                        <Array as="points"/>
                    </mxGeometry>
                </mxCell>
                <mxCell id="110" value="" style="edgeStyle=none;orthogonalLoop=1;jettySize=auto;html=1;fontFamily=Helvetica;fontSize=12;fontColor=default;strokeColor=#150404;endArrow=none;endFill=0;" edge="1" parent="107">
                    <mxGeometry width="80" relative="1" as="geometry">
                        <mxPoint as="sourcePoint"/>
                        <mxPoint y="90" as="targetPoint"/>
                        <Array as="points"/>
                    </mxGeometry>
                </mxCell>
                <mxCell id="111" value="" style="edgeStyle=none;orthogonalLoop=1;jettySize=auto;html=1;strokeColor=#150404;fontFamily=Helvetica;fontSize=12;fontColor=default;endArrow=none;endFill=0;" edge="1" parent="107">
                    <mxGeometry width="80" relative="1" as="geometry">
                        <mxPoint x="40" as="sourcePoint"/>
                        <mxPoint x="40" y="90" as="targetPoint"/>
                        <Array as="points"/>
                    </mxGeometry>
                </mxCell>
                <mxCell id="112" value="&lt;font style=&quot;font-size: 40px;&quot; face=&quot;Times New Roman&quot; color=&quot;#080707&quot;&gt;tbl-student&lt;/font&gt;" style="text;strokeColor=none;align=center;fillColor=none;html=1;verticalAlign=middle;whiteSpace=wrap;rounded=0;pointerEvents=0;fontFamily=Helvetica;fontSize=12;fontColor=default;" vertex="1" parent="107">
                    <mxGeometry x="37" y="20" width="180" height="52.5" as="geometry"/>
                </mxCell>
                <mxCell id="113" style="edgeStyle=none;html=1;exitX=1;exitY=0.5;exitDx=0;exitDy=0;strokeColor=#0d0d0d;strokeWidth=2;fontFamily=Times New Roman;fontSize=26;fontColor=#080707;startArrow=none;startFill=0;endArrow=classic;endFill=1;" edge="1" parent="106">
                    <mxGeometry relative="1" as="geometry">
                        <mxPoint x="151" y="21.105263157894797" as="targetPoint"/>
                        <mxPoint y="21" as="sourcePoint"/>
                        <Array as="points">
                            <mxPoint x="-117.87" y="21"/>
                        </Array>
                    </mxGeometry>
                </mxCell>
                <mxCell id="114" style="edgeStyle=none;html=1;exitX=0;exitY=0.75;exitDx=0;exitDy=0;entryX=0.984;entryY=0.654;entryDx=0;entryDy=0;entryPerimeter=0;strokeColor=#0d0d0d;strokeWidth=2;fontFamily=Times New Roman;fontSize=26;fontColor=#080707;startArrow=none;startFill=0;endArrow=classic;endFill=1;" edge="1" parent="106" target="87">
                    <mxGeometry relative="1" as="geometry">
                        <mxPoint x="141.03999999999996" y="69.375" as="sourcePoint"/>
                        <mxPoint x="31.000000000000057" y="68.88000000000011" as="targetPoint"/>
                        <Array as="points">
                            <mxPoint x="157.03999999999996" y="69"/>
                            <mxPoint x="-97.87" y="65"/>
                        </Array>
                    </mxGeometry>
                </mxCell>
                <mxCell id="152" value="&lt;font style=&quot;font-size: 40px;&quot; face=&quot;Times New Roman&quot; color=&quot;#080707&quot;&gt;Add Details&lt;/font&gt;" style="text;strokeColor=none;align=center;fillColor=none;html=1;verticalAlign=middle;whiteSpace=wrap;rounded=0;pointerEvents=0;fontFamily=Helvetica;fontSize=12;fontColor=default;" vertex="1" parent="106">
                    <mxGeometry x="-147" y="-40" width="310" height="52.5" as="geometry"/>
                </mxCell>
                <mxCell id="115" value="" style="group" vertex="1" connectable="0" parent="1">
                    <mxGeometry x="573.87" y="919" width="391" height="90" as="geometry"/>
                </mxCell>
                <mxCell id="116" value="" style="group;strokeWidth=3;strokeColor=default;fillColor=none;" vertex="1" connectable="0" parent="115">
                    <mxGeometry x="151" width="240" height="90" as="geometry"/>
                </mxCell>
                <mxCell id="117" value="" style="edgeStyle=none;orthogonalLoop=1;jettySize=auto;html=1;fontFamily=Helvetica;fontSize=12;fontColor=default;strokeColor=#150404;endArrow=none;endFill=0;" edge="1" parent="116">
                    <mxGeometry width="80" relative="1" as="geometry">
                        <mxPoint as="sourcePoint"/>
                        <mxPoint x="210.00000000000003" as="targetPoint"/>
                        <Array as="points"/>
                    </mxGeometry>
                </mxCell>
                <mxCell id="118" value="" style="edgeStyle=none;orthogonalLoop=1;jettySize=auto;html=1;fontFamily=Helvetica;fontSize=12;fontColor=default;strokeColor=#150404;endArrow=none;endFill=0;" edge="1" parent="116">
                    <mxGeometry width="80" relative="1" as="geometry">
                        <mxPoint y="88.01999999999998" as="sourcePoint"/>
                        <mxPoint x="210.00000000000003" y="88.01999999999998" as="targetPoint"/>
                        <Array as="points"/>
                    </mxGeometry>
                </mxCell>
                <mxCell id="119" value="" style="edgeStyle=none;orthogonalLoop=1;jettySize=auto;html=1;fontFamily=Helvetica;fontSize=12;fontColor=default;strokeColor=#150404;endArrow=none;endFill=0;" edge="1" parent="116">
                    <mxGeometry width="80" relative="1" as="geometry">
                        <mxPoint as="sourcePoint"/>
                        <mxPoint y="90" as="targetPoint"/>
                        <Array as="points"/>
                    </mxGeometry>
                </mxCell>
                <mxCell id="120" value="" style="edgeStyle=none;orthogonalLoop=1;jettySize=auto;html=1;strokeColor=#150404;fontFamily=Helvetica;fontSize=12;fontColor=default;endArrow=none;endFill=0;" edge="1" parent="116">
                    <mxGeometry width="80" relative="1" as="geometry">
                        <mxPoint x="40" as="sourcePoint"/>
                        <mxPoint x="40" y="90" as="targetPoint"/>
                        <Array as="points"/>
                    </mxGeometry>
                </mxCell>
                <mxCell id="121" value="&lt;font style=&quot;font-size: 40px;&quot; face=&quot;Times New Roman&quot; color=&quot;#080707&quot;&gt;tbl-subject&lt;/font&gt;" style="text;strokeColor=none;align=center;fillColor=none;html=1;verticalAlign=middle;whiteSpace=wrap;rounded=0;pointerEvents=0;fontFamily=Helvetica;fontSize=12;fontColor=default;" vertex="1" parent="116">
                    <mxGeometry x="37" y="20" width="180" height="52.5" as="geometry"/>
                </mxCell>
                <mxCell id="122" style="edgeStyle=none;html=1;exitX=1;exitY=0.5;exitDx=0;exitDy=0;strokeColor=#0d0d0d;strokeWidth=2;fontFamily=Times New Roman;fontSize=26;fontColor=#080707;startArrow=none;startFill=0;endArrow=classic;endFill=1;" edge="1" parent="115">
                    <mxGeometry relative="1" as="geometry">
                        <mxPoint x="151" y="21.105263157894797" as="targetPoint"/>
                        <mxPoint y="21" as="sourcePoint"/>
                        <Array as="points">
                            <mxPoint x="-117.87" y="21"/>
                        </Array>
                    </mxGeometry>
                </mxCell>
                <mxCell id="123" style="edgeStyle=none;html=1;exitX=0;exitY=0.75;exitDx=0;exitDy=0;entryX=0.959;entryY=0.76;entryDx=0;entryDy=0;entryPerimeter=0;strokeColor=#0d0d0d;strokeWidth=2;fontFamily=Times New Roman;fontSize=26;fontColor=#080707;startArrow=none;startFill=0;endArrow=classic;endFill=1;" edge="1" parent="115" target="88">
                    <mxGeometry relative="1" as="geometry">
                        <mxPoint x="141.03999999999996" y="69.375" as="sourcePoint"/>
                        <mxPoint x="31.000000000000057" y="68.88000000000011" as="targetPoint"/>
                        <Array as="points">
                            <mxPoint x="157.03999999999996" y="69"/>
                        </Array>
                    </mxGeometry>
                </mxCell>
                <mxCell id="124" value="" style="group" vertex="1" connectable="0" parent="1">
                    <mxGeometry x="573.87" y="1089" width="391" height="90" as="geometry"/>
                </mxCell>
                <mxCell id="165" value="" style="group" vertex="1" connectable="0" parent="124">
                    <mxGeometry x="-117.87" width="508.87" height="90" as="geometry"/>
                </mxCell>
                <mxCell id="125" value="" style="group;strokeWidth=3;strokeColor=default;fillColor=none;" vertex="1" connectable="0" parent="165">
                    <mxGeometry x="268.87" width="240" height="90" as="geometry"/>
                </mxCell>
                <mxCell id="126" value="" style="edgeStyle=none;orthogonalLoop=1;jettySize=auto;html=1;fontFamily=Helvetica;fontSize=12;fontColor=default;strokeColor=#150404;endArrow=none;endFill=0;" edge="1" parent="125">
                    <mxGeometry width="80" relative="1" as="geometry">
                        <mxPoint as="sourcePoint"/>
                        <mxPoint x="210.00000000000003" as="targetPoint"/>
                        <Array as="points"/>
                    </mxGeometry>
                </mxCell>
                <mxCell id="127" value="" style="edgeStyle=none;orthogonalLoop=1;jettySize=auto;html=1;fontFamily=Helvetica;fontSize=12;fontColor=default;strokeColor=#150404;endArrow=none;endFill=0;" edge="1" parent="125">
                    <mxGeometry width="80" relative="1" as="geometry">
                        <mxPoint y="88.01999999999998" as="sourcePoint"/>
                        <mxPoint x="210.00000000000003" y="88.01999999999998" as="targetPoint"/>
                        <Array as="points"/>
                    </mxGeometry>
                </mxCell>
                <mxCell id="128" value="" style="edgeStyle=none;orthogonalLoop=1;jettySize=auto;html=1;fontFamily=Helvetica;fontSize=12;fontColor=default;strokeColor=#150404;endArrow=none;endFill=0;" edge="1" parent="125">
                    <mxGeometry width="80" relative="1" as="geometry">
                        <mxPoint as="sourcePoint"/>
                        <mxPoint y="90" as="targetPoint"/>
                        <Array as="points"/>
                    </mxGeometry>
                </mxCell>
                <mxCell id="129" value="" style="edgeStyle=none;orthogonalLoop=1;jettySize=auto;html=1;strokeColor=#150404;fontFamily=Helvetica;fontSize=12;fontColor=default;endArrow=none;endFill=0;" edge="1" parent="125">
                    <mxGeometry width="80" relative="1" as="geometry">
                        <mxPoint x="40" as="sourcePoint"/>
                        <mxPoint x="40" y="90" as="targetPoint"/>
                        <Array as="points"/>
                    </mxGeometry>
                </mxCell>
                <mxCell id="130" value="&lt;font style=&quot;font-size: 40px;&quot; face=&quot;Times New Roman&quot; color=&quot;#080707&quot;&gt;tbl-exam&lt;/font&gt;" style="text;strokeColor=none;align=center;fillColor=none;html=1;verticalAlign=middle;whiteSpace=wrap;rounded=0;pointerEvents=0;fontFamily=Helvetica;fontSize=12;fontColor=default;" vertex="1" parent="125">
                    <mxGeometry x="37" y="20" width="180" height="52.5" as="geometry"/>
                </mxCell>
                <mxCell id="131" style="edgeStyle=none;html=1;exitX=1;exitY=0.5;exitDx=0;exitDy=0;strokeColor=#0d0d0d;strokeWidth=2;fontFamily=Times New Roman;fontSize=26;fontColor=#080707;startArrow=none;startFill=0;endArrow=classic;endFill=1;" edge="1" parent="165">
                    <mxGeometry relative="1" as="geometry">
                        <mxPoint x="270" y="21" as="targetPoint"/>
                        <mxPoint x="107.87" y="21" as="sourcePoint"/>
                        <Array as="points">
                            <mxPoint y="21"/>
                        </Array>
                    </mxGeometry>
                </mxCell>
                <mxCell id="132" style="edgeStyle=none;html=1;exitX=0;exitY=0.75;exitDx=0;exitDy=0;entryX=0.967;entryY=0.677;entryDx=0;entryDy=0;entryPerimeter=0;strokeColor=#0d0d0d;strokeWidth=2;fontFamily=Times New Roman;fontSize=26;fontColor=#080707;startArrow=none;startFill=0;endArrow=classic;endFill=1;" edge="1" parent="165" target="89">
                    <mxGeometry relative="1" as="geometry">
                        <mxPoint x="258.90999999999997" y="69.375" as="sourcePoint"/>
                        <mxPoint x="148.87000000000006" y="68.88000000000011" as="targetPoint"/>
                        <Array as="points">
                            <mxPoint x="274.90999999999997" y="69"/>
                        </Array>
                    </mxGeometry>
                </mxCell>
                <mxCell id="189" value="&lt;font face=&quot;Times New Roman&quot; color=&quot;#080707&quot;&gt;&lt;span style=&quot;font-size: 40px;&quot;&gt;Exam Details&lt;/span&gt;&lt;/font&gt;" style="text;strokeColor=none;align=center;fillColor=none;html=1;verticalAlign=middle;whiteSpace=wrap;rounded=0;pointerEvents=0;fontFamily=Helvetica;fontSize=12;fontColor=default;" vertex="1" parent="165">
                    <mxGeometry y="-30" width="310" height="52.5" as="geometry"/>
                </mxCell>
                <mxCell id="144" value="&lt;font style=&quot;font-size: 31px;&quot; face=&quot;Times New Roman&quot; color=&quot;#080707&quot;&gt;Register&lt;/font&gt;" style="text;strokeColor=none;align=center;fillColor=none;html=1;verticalAlign=middle;whiteSpace=wrap;rounded=0;pointerEvents=0;fontFamily=Helvetica;fontSize=12;fontColor=default;" vertex="1" parent="1">
                    <mxGeometry x="298" y="718" width="180" height="52.5" as="geometry"/>
                </mxCell>
                <mxCell id="145" value="&lt;font style=&quot;font-size: 40px;&quot; face=&quot;Times New Roman&quot; color=&quot;#080707&quot;&gt;Subject&lt;/font&gt;" style="text;strokeColor=none;align=center;fillColor=none;html=1;verticalAlign=middle;whiteSpace=wrap;rounded=0;pointerEvents=0;fontFamily=Helvetica;fontSize=12;fontColor=default;" vertex="1" parent="1">
                    <mxGeometry x="300" y="937.75" width="180" height="52.5" as="geometry"/>
                </mxCell>
                <mxCell id="147" value="&lt;font style=&quot;font-size: 40px;&quot; face=&quot;Times New Roman&quot; color=&quot;#080707&quot;&gt;Request for login&lt;/font&gt;" style="text;strokeColor=none;align=center;fillColor=none;html=1;verticalAlign=middle;whiteSpace=wrap;rounded=0;pointerEvents=0;fontFamily=Helvetica;fontSize=12;fontColor=default;" vertex="1" parent="1">
                    <mxGeometry x="-5" y="449" width="310" height="52.5" as="geometry"/>
                </mxCell>
                <mxCell id="149" value="&lt;font style=&quot;font-size: 40px;&quot; face=&quot;Times New Roman&quot; color=&quot;#080707&quot;&gt;Response&lt;/font&gt;" style="text;strokeColor=none;align=center;fillColor=none;html=1;verticalAlign=middle;whiteSpace=wrap;rounded=0;pointerEvents=0;fontFamily=Helvetica;fontSize=12;fontColor=default;" vertex="1" parent="1">
                    <mxGeometry x="6" y="545.25" width="310" height="52.5" as="geometry"/>
                </mxCell>
                <mxCell id="151" value="&lt;font style=&quot;font-size: 40px;&quot; face=&quot;Times New Roman&quot; color=&quot;#080707&quot;&gt;Reply&lt;/font&gt;" style="text;strokeColor=none;align=center;fillColor=none;html=1;verticalAlign=middle;whiteSpace=wrap;rounded=0;pointerEvents=0;fontFamily=Helvetica;fontSize=12;fontColor=default;" vertex="1" parent="1">
                    <mxGeometry x="472" y="562" width="310" height="52.5" as="geometry"/>
                </mxCell>
                <mxCell id="153" value="&lt;font style=&quot;font-size: 40px;&quot; face=&quot;Times New Roman&quot; color=&quot;#080707&quot;&gt;Reply&lt;/font&gt;" style="text;strokeColor=none;align=center;fillColor=none;html=1;verticalAlign=middle;whiteSpace=wrap;rounded=0;pointerEvents=0;fontFamily=Helvetica;fontSize=12;fontColor=default;" vertex="1" parent="1">
                    <mxGeometry x="426" y="759" width="310" height="52.5" as="geometry"/>
                </mxCell>
                <mxCell id="154" value="&lt;font style=&quot;font-size: 40px;&quot; face=&quot;Times New Roman&quot; color=&quot;#080707&quot;&gt;Reply&lt;/font&gt;" style="text;strokeColor=none;align=center;fillColor=none;html=1;verticalAlign=middle;whiteSpace=wrap;rounded=0;pointerEvents=0;fontFamily=Helvetica;fontSize=12;fontColor=default;" vertex="1" parent="1">
                    <mxGeometry x="434" y="999" width="310" height="52.5" as="geometry"/>
                </mxCell>
                <mxCell id="155" value="&lt;font style=&quot;font-size: 40px;&quot; face=&quot;Times New Roman&quot; color=&quot;#080707&quot;&gt;Reply&lt;/font&gt;" style="text;strokeColor=none;align=center;fillColor=none;html=1;verticalAlign=middle;whiteSpace=wrap;rounded=0;pointerEvents=0;fontFamily=Helvetica;fontSize=12;fontColor=default;" vertex="1" parent="1">
                    <mxGeometry x="441" y="1168.5" width="310" height="52.5" as="geometry"/>
                </mxCell>
                <mxCell id="156" value="&lt;font style=&quot;font-size: 40px;&quot; face=&quot;Times New Roman&quot; color=&quot;#080707&quot;&gt;Response&lt;/font&gt;" style="text;strokeColor=none;align=center;fillColor=none;html=1;verticalAlign=middle;whiteSpace=wrap;rounded=0;pointerEvents=0;fontFamily=Helvetica;fontSize=12;fontColor=default;" vertex="1" parent="1">
                    <mxGeometry x="-4" y="779" width="310" height="52.5" as="geometry"/>
                </mxCell>
                <mxCell id="157" value="&lt;font style=&quot;font-size: 40px;&quot; face=&quot;Times New Roman&quot; color=&quot;#080707&quot;&gt;Response&lt;/font&gt;" style="text;strokeColor=none;align=center;fillColor=none;html=1;verticalAlign=middle;whiteSpace=wrap;rounded=0;pointerEvents=0;fontFamily=Helvetica;fontSize=12;fontColor=default;" vertex="1" parent="1">
                    <mxGeometry x="-6" y="990.25" width="310" height="52.5" as="geometry"/>
                </mxCell>
                <mxCell id="158" value="&lt;font style=&quot;font-size: 40px;&quot; face=&quot;Times New Roman&quot; color=&quot;#080707&quot;&gt;Response&lt;/font&gt;" style="text;strokeColor=none;align=center;fillColor=none;html=1;verticalAlign=middle;whiteSpace=wrap;rounded=0;pointerEvents=0;fontFamily=Helvetica;fontSize=12;fontColor=default;" vertex="1" parent="1">
                    <mxGeometry x="-1" y="1190" width="310" height="52.5" as="geometry"/>
                </mxCell>
                <mxCell id="159" value="&lt;font style=&quot;font-size: 40px;&quot; face=&quot;Times New Roman&quot; color=&quot;#080707&quot;&gt;Register student&lt;/font&gt;" style="text;strokeColor=none;align=center;fillColor=none;html=1;verticalAlign=middle;whiteSpace=wrap;rounded=0;pointerEvents=0;fontFamily=Helvetica;fontSize=12;fontColor=default;" vertex="1" parent="1">
                    <mxGeometry x="-14" y="677" width="310" height="52.5" as="geometry"/>
                </mxCell>
                <mxCell id="160" value="" style="group" vertex="1" connectable="0" parent="1">
                    <mxGeometry x="298" y="1069" width="180" height="130" as="geometry"/>
                </mxCell>
                <mxCell id="89" value="" style="ellipse;whiteSpace=wrap;html=1;strokeColor=#000000;fillColor=none;" vertex="1" parent="160">
                    <mxGeometry x="7" width="160" height="130" as="geometry"/>
                </mxCell>
                <mxCell id="103" value="&lt;font style=&quot;font-size: 26px;&quot;&gt;4.0&lt;/font&gt;" style="text;strokeColor=none;align=center;fillColor=none;html=1;verticalAlign=middle;whiteSpace=wrap;rounded=0;pointerEvents=0;fontFamily=Times New Roman;fontSize=40;fontColor=#080707;" vertex="1" parent="160">
                    <mxGeometry x="57" y="10" width="60" height="30" as="geometry"/>
                </mxCell>
                <mxCell id="146" value="&lt;font style=&quot;font-size: 40px;&quot; face=&quot;Times New Roman&quot; color=&quot;#080707&quot;&gt;Exam&lt;/font&gt;" style="text;strokeColor=none;align=center;fillColor=none;html=1;verticalAlign=middle;whiteSpace=wrap;rounded=0;pointerEvents=0;fontFamily=Helvetica;fontSize=12;fontColor=default;" vertex="1" parent="160">
                    <mxGeometry y="49" width="180" height="52.5" as="geometry"/>
                </mxCell>
                <mxCell id="161" value="" style="group" vertex="1" connectable="0" parent="1">
                    <mxGeometry x="285" y="1279" width="180" height="130" as="geometry"/>
                </mxCell>
                <mxCell id="162" value="" style="ellipse;whiteSpace=wrap;html=1;strokeColor=#000000;fillColor=none;" vertex="1" parent="161">
                    <mxGeometry x="7" width="160" height="130" as="geometry"/>
                </mxCell>
                <mxCell id="163" value="&lt;font style=&quot;font-size: 26px;&quot;&gt;4.0&lt;/font&gt;" style="text;strokeColor=none;align=center;fillColor=none;html=1;verticalAlign=middle;whiteSpace=wrap;rounded=0;pointerEvents=0;fontFamily=Times New Roman;fontSize=40;fontColor=#080707;" vertex="1" parent="161">
                    <mxGeometry x="57" y="10" width="60" height="30" as="geometry"/>
                </mxCell>
                <mxCell id="164" value="&lt;font style=&quot;font-size: 40px;&quot; face=&quot;Times New Roman&quot; color=&quot;#080707&quot;&gt;Result&lt;/font&gt;" style="text;strokeColor=none;align=center;fillColor=none;html=1;verticalAlign=middle;whiteSpace=wrap;rounded=0;pointerEvents=0;fontFamily=Helvetica;fontSize=12;fontColor=default;" vertex="1" parent="161">
                    <mxGeometry y="49" width="180" height="52.5" as="geometry"/>
                </mxCell>
                <mxCell id="166" value="" style="group" vertex="1" connectable="0" parent="1">
                    <mxGeometry x="455" y="1299" width="508.87" height="90" as="geometry"/>
                </mxCell>
                <mxCell id="167" value="" style="group;strokeWidth=3;strokeColor=default;fillColor=none;" vertex="1" connectable="0" parent="166">
                    <mxGeometry x="268.87" width="240" height="90" as="geometry"/>
                </mxCell>
                <mxCell id="168" value="" style="edgeStyle=none;orthogonalLoop=1;jettySize=auto;html=1;fontFamily=Helvetica;fontSize=12;fontColor=default;strokeColor=#150404;endArrow=none;endFill=0;" edge="1" parent="167">
                    <mxGeometry width="80" relative="1" as="geometry">
                        <mxPoint as="sourcePoint"/>
                        <mxPoint x="210.00000000000003" as="targetPoint"/>
                        <Array as="points"/>
                    </mxGeometry>
                </mxCell>
                <mxCell id="169" value="" style="edgeStyle=none;orthogonalLoop=1;jettySize=auto;html=1;fontFamily=Helvetica;fontSize=12;fontColor=default;strokeColor=#150404;endArrow=none;endFill=0;" edge="1" parent="167">
                    <mxGeometry width="80" relative="1" as="geometry">
                        <mxPoint y="88.01999999999998" as="sourcePoint"/>
                        <mxPoint x="210.00000000000003" y="88.01999999999998" as="targetPoint"/>
                        <Array as="points"/>
                    </mxGeometry>
                </mxCell>
                <mxCell id="170" value="" style="edgeStyle=none;orthogonalLoop=1;jettySize=auto;html=1;fontFamily=Helvetica;fontSize=12;fontColor=default;strokeColor=#150404;endArrow=none;endFill=0;" edge="1" parent="167">
                    <mxGeometry width="80" relative="1" as="geometry">
                        <mxPoint as="sourcePoint"/>
                        <mxPoint y="90" as="targetPoint"/>
                        <Array as="points"/>
                    </mxGeometry>
                </mxCell>
                <mxCell id="171" value="" style="edgeStyle=none;orthogonalLoop=1;jettySize=auto;html=1;strokeColor=#150404;fontFamily=Helvetica;fontSize=12;fontColor=default;endArrow=none;endFill=0;" edge="1" parent="167">
                    <mxGeometry width="80" relative="1" as="geometry">
                        <mxPoint x="40" as="sourcePoint"/>
                        <mxPoint x="40" y="90" as="targetPoint"/>
                        <Array as="points"/>
                    </mxGeometry>
                </mxCell>
                <mxCell id="172" value="&lt;font style=&quot;font-size: 40px;&quot; face=&quot;Times New Roman&quot; color=&quot;#080707&quot;&gt;tbl-result&lt;/font&gt;" style="text;strokeColor=none;align=center;fillColor=none;html=1;verticalAlign=middle;whiteSpace=wrap;rounded=0;pointerEvents=0;fontFamily=Helvetica;fontSize=12;fontColor=default;" vertex="1" parent="167">
                    <mxGeometry x="37" y="20" width="180" height="52.5" as="geometry"/>
                </mxCell>
                <mxCell id="173" style="edgeStyle=none;html=1;exitX=1;exitY=0.5;exitDx=0;exitDy=0;strokeColor=#0d0d0d;strokeWidth=2;fontFamily=Times New Roman;fontSize=26;fontColor=#080707;startArrow=none;startFill=0;endArrow=classic;endFill=1;" edge="1" parent="166">
                    <mxGeometry relative="1" as="geometry">
                        <mxPoint x="270" y="21" as="targetPoint"/>
                        <mxPoint x="107.87" y="21" as="sourcePoint"/>
                        <Array as="points">
                            <mxPoint y="21"/>
                        </Array>
                    </mxGeometry>
                </mxCell>
                <mxCell id="174" style="edgeStyle=none;html=1;exitX=0;exitY=0.75;exitDx=0;exitDy=0;entryX=1;entryY=0.75;entryDx=0;entryDy=0;strokeColor=#0d0d0d;strokeWidth=2;fontFamily=Times New Roman;fontSize=26;fontColor=#080707;startArrow=none;startFill=0;endArrow=classic;endFill=1;" edge="1" parent="166" target="164">
                    <mxGeometry relative="1" as="geometry">
                        <mxPoint x="258.90999999999997" y="69.375" as="sourcePoint"/>
                        <mxPoint x="148.87000000000006" y="68.88000000000011" as="targetPoint"/>
                        <Array as="points">
                            <mxPoint x="274.90999999999997" y="69"/>
                        </Array>
                    </mxGeometry>
                </mxCell>
                <mxCell id="183" value="&lt;font style=&quot;font-size: 40px;&quot; face=&quot;Times New Roman&quot; color=&quot;#080707&quot;&gt;Add Result&lt;/font&gt;" style="text;strokeColor=none;align=center;fillColor=none;html=1;verticalAlign=middle;whiteSpace=wrap;rounded=0;pointerEvents=0;fontFamily=Helvetica;fontSize=12;fontColor=default;" vertex="1" parent="166">
                    <mxGeometry x="-19" y="-40" width="310" height="52.5" as="geometry"/>
                </mxCell>
                <mxCell id="175" value="&lt;font style=&quot;font-size: 40px;&quot; face=&quot;Times New Roman&quot; color=&quot;#080707&quot;&gt;Reply&lt;/font&gt;" style="text;strokeColor=none;align=center;fillColor=none;html=1;verticalAlign=middle;whiteSpace=wrap;rounded=0;pointerEvents=0;fontFamily=Helvetica;fontSize=12;fontColor=default;" vertex="1" parent="1">
                    <mxGeometry x="434" y="1389" width="310" height="52.5" as="geometry"/>
                </mxCell>
                <mxCell id="177" style="edgeStyle=orthogonalEdgeStyle;html=1;exitX=0;exitY=0.75;exitDx=0;exitDy=0;entryX=0;entryY=1;entryDx=0;entryDy=0;strokeColor=#0d0d0d;strokeWidth=2;fontFamily=Times New Roman;fontSize=31;fontColor=#080707;startArrow=none;startFill=0;endArrow=classic;endFill=1;" edge="1" parent="1" source="164" target="2">
                    <mxGeometry relative="1" as="geometry"/>
                </mxCell>
                <mxCell id="178" value="&lt;font style=&quot;font-size: 40px;&quot; face=&quot;Times New Roman&quot; color=&quot;#080707&quot;&gt;Response&lt;/font&gt;" style="text;strokeColor=none;align=center;fillColor=none;html=1;verticalAlign=middle;whiteSpace=wrap;rounded=0;pointerEvents=0;fontFamily=Helvetica;fontSize=12;fontColor=default;" vertex="1" parent="1">
                    <mxGeometry x="-4" y="1389" width="310" height="52.5" as="geometry"/>
                </mxCell>
                <mxCell id="179" value="&lt;font style=&quot;font-size: 40px;&quot; face=&quot;Times New Roman&quot; color=&quot;#080707&quot;&gt;Register subject&lt;/font&gt;" style="text;strokeColor=none;align=center;fillColor=none;html=1;verticalAlign=middle;whiteSpace=wrap;rounded=0;pointerEvents=0;fontFamily=Helvetica;fontSize=12;fontColor=default;" vertex="1" parent="1">
                    <mxGeometry x="-25" y="899" width="310" height="52.5" as="geometry"/>
                </mxCell>
                <mxCell id="180" value="&lt;font style=&quot;font-size: 40px;&quot; face=&quot;Times New Roman&quot; color=&quot;#080707&quot;&gt;Add Subject&lt;/font&gt;" style="text;strokeColor=none;align=center;fillColor=none;html=1;verticalAlign=middle;whiteSpace=wrap;rounded=0;pointerEvents=0;fontFamily=Helvetica;fontSize=12;fontColor=default;" vertex="1" parent="1">
                    <mxGeometry x="446" y="879" width="310" height="52.5" as="geometry"/>
                </mxCell>
                <mxCell id="181" value="&lt;font style=&quot;font-size: 40px;&quot; face=&quot;Times New Roman&quot; color=&quot;#080707&quot;&gt;Register Exam&lt;/font&gt;" style="text;strokeColor=none;align=center;fillColor=none;html=1;verticalAlign=middle;whiteSpace=wrap;rounded=0;pointerEvents=0;fontFamily=Helvetica;fontSize=12;fontColor=default;" vertex="1" parent="1">
                    <mxGeometry x="-14" y="1079" width="310" height="52.5" as="geometry"/>
                </mxCell>
                <mxCell id="182" value="&lt;font style=&quot;font-size: 40px;&quot; face=&quot;Times New Roman&quot; color=&quot;#080707&quot;&gt;Published Result&lt;/font&gt;" style="text;strokeColor=none;align=center;fillColor=none;html=1;verticalAlign=middle;whiteSpace=wrap;rounded=0;pointerEvents=0;fontFamily=Helvetica;fontSize=12;fontColor=default;" vertex="1" parent="1">
                    <mxGeometry x="-4" y="1279" width="310" height="52.5" as="geometry"/>
                </mxCell>
                <mxCell id="188" style="edgeStyle=none;html=1;exitX=0.5;exitY=1;exitDx=0;exitDy=0;entryX=0.75;entryY=0;entryDx=0;entryDy=0;strokeColor=#0d0d0d;strokeWidth=2;fontFamily=Times New Roman;fontSize=31;fontColor=#080707;startArrow=none;startFill=0;endArrow=classic;endFill=1;" edge="1" parent="1" source="89" target="163">
                    <mxGeometry relative="1" as="geometry">
                        <Array as="points">
                            <mxPoint x="387" y="1289"/>
                        </Array>
                    </mxGeometry>
                </mxCell>
            </root>
        </mxGraphModel>
    </diagram>
</mxfile>